<svg xmlns="http://www.w3.org/2000/svg" xmlns:xlink="http://www.w3.org/1999/xlink" version="1.1" id="Layer_1" x="0px" y="0px" width="34.125px" height="17.438px" viewBox="0 0 34.125 17.438" style="enable-background:new 0 0 34.125 17.438;" xml:space="preserve" class="svg logo replaced-svg">
<style type="text/css">
	.st0{fill:#020202;}
</style>
<path class="st0" d="M27.649,9.049h-3.708c-0.551,0-0.896-0.379-0.771-0.929c0.125-0.551,0.681-0.972,1.232-0.972h6.13l0.632-2.619  l-6.39,0.002c-1.951,0-3.884,1.609-4.327,3.56c-0.443,1.951,0.78,3.652,2.731,3.652h3.255c0.509,0,0.87,0.38,0.794,0.889  c-0.077,0.509-0.6,0.954-1.109,0.954h-6.062l-0.62,2.614h6.597c1.979,0,3.825-1.609,4.123-3.589  C30.413,10.904,29.085,9.049,27.649,9.049z"></path>
<path class="st0" d="M16.784,3.573c1.551-0.104,2.981-1.177,3.598-2.612l0.009-0.037h-4.19l-0.646,2.649H16.784z"></path>
<path class="st0" d="M6.817,7.147L6.817,7.147h2.87h3.891l0.628-2.618l-7.388,0H6.816C3.604,4.53,1,7.135,1,10.347  c0,3.213,2.605,5.819,5.818,5.819c2.869,0,5.252-2.077,5.729-4.809l0.589-2.32H8.072l-0.617,2.687h2.24  c-0.496,1.124-1.569,1.825-2.877,1.825c-1.768,0-3.2-1.432-3.2-3.2C3.618,8.58,5.05,7.147,6.817,7.147z"></path>
<path class="st0" d="M17.464,12.967l2.072-8.438h-2.709l-1.505,0l-0.64,2.621h1.246l-1.431,5.852  c-0.341,1.712,0.955,3.193,2.728,3.193h1.105l0.634-2.609h-0.745C17.78,13.587,17.398,13.431,17.464,12.967z"></path>
</svg>